<svg xmlns="http://www.w3.org/2000/svg" viewBox="0 0 780 200"><path fill="#00AA72" d="M110.3,190.4H50.5V114c0-23.7-27.5-23.7-27.5-23.7s-27.5,0-27.5,23.7v76.4H-44.2V0h59.7v71.6c0,23.7,27.5,23.7,27.5,23.7s27.5,0,27.5-23.7V0h59.8V190.4z M253.9,0l-63.5,190.4h-58.8L195.1,0H253.9z M397.6,190.4h-59.8V0h59.8c58.8,0,100,27.5,100,71.6S456.4,143.2,397.6,190.4z M397.6,143.2c26.1,0,41.3-15.2,41.3-48.9s-15.2-48.9-41.3-48.9h-4.4v97.8H397.6z"/><path fill="#005C3F" d="M536.1,65.3c3.5,44.1,45.3,79,96.3,79h104.3c0.8-4,1.2-8.2,1.2-12.5c0-36.6-29.5-66.2-66-66.5L536.1,65.3z" opacity="0.4"/></svg>
