<svg xmlns="http://www.w3.org/2000/svg" viewBox="0 0 240 80"><circle cx="40" cy="40" r="40" fill="#21A038"/><path fill="#FFF" d="M37.5 55.4L26.3 44.2l3.4-3.4 7.8 7.8 15.6-15.6 3.4 3.4z"/><path fill="#21A038" d="M103.1 36.3c.6 5.2-2.1 8.3-7 8.3-4.2 0-7.2-2.5-7.2-6.5 0-4.4 3.6-7.3 8.3-7.3 2.1 0 4.1.6 5.6 1.7l1.4 1.1s-.4-3.1-.4-6c0-2.8.2-5.4.2-5.4l-1.3-.2c-1.3-.2-2.6-.3-4.1-.3-8.8 0-14.4 5.3-14.4 13.5 0 8.8 6.4 14.1 14.3 14.1 8.9 0 14-6.3 14-8.8 0-1 0-1.8-.1-2.9l-3.8-1.3z"/><path fill="#666" d="M153.1 27.5h-4.1v4.3h4.1c2.4 0 4.2 1.5 4.2 4.1 0 2.5-1.8 4.1-4.2 4.1h-4.1v7.6h-5.4v-27.1h9.5c5.3 0 9.5 3.1 9.5 8.5 0 5.3-4.2 8.5-9.5 8.5zM170.1 47.6h-5.4v-4.3l.1-1.3c-1.1 1.1-3.2 1.6-4.9 1.6-4.2 0-7-2.3-7-6.2 0-6.1 10.3-6.6 11.8-6.6.1-5.1-.3-6.4-5.2-6.4-1.9 0-4.3.4-6.3 1.1l-1.1.4-.4-4c2.8-.7 5.5-1.2 8.3-1.2 8.5 0 10.2 3.1 10.2 10.1v14.7zm-2.8-13.9c-.8 0-6.5.1-6.5 2.8 0 1.5 1.1 2.3 2.8 2.3 2.4 0 3.7-1.5 3.7-4v-1.1zM195.4 27.5l-8.3 18.7c-2.4 5.4-4.8 7.3-8.5 7.3-1.1 0-2.2-.1-3.3-.4l-.8-.2-.3-4.1.8.2c.9.2 1.3.3 2.1.3 2.3 0 3.8-1.4 5.4-5.1l.6-1.5-8.5-15.2h6.1l4.8 9.5 4.8-9.5h6.1z"/></svg>
